<?xml version="1.0" encoding="UTF-8"?>
<svg id="_图层_1" data-name="图层 1" xmlns="http://www.w3.org/2000/svg" viewBox="0 0 1116.25 422.17">
  <defs>
    <style>
      .cls-1 {
        fill: #9e947f;
      }
    </style>
  </defs>
  <path class="cls-1" d="m529.1,155.16l-.04-.03c-20.55-16.89-44.84-15.62-69.66-17.14-32.18-1.97-42.74,2.19-52.3,32.89-4.66,14.96-8.08,30.41-9.42,45.88-4.91,56.62-10.99,113.06-21.76,168.88-2.83,14.68.34,26.41,12.05,35.72,29.78,2.84,36.52-.88,35.66-27.14-1.01-30.47,8.85-59.5,8.06-90-.57-21.95,5.98-25.47,29.09-24.23,14.92.8,29.12.16,41.35-9.73,19.11-9.7,36.61-21.28,47.6-40.51,13.29-30.44,9.05-56.04-20.64-74.61Zm-45.82,75.46c-.67.27-1.33.54-2,.78-12.88,4.61-28.64,1.34-32.41-12.13-1.77-3.28-2.69-7.2-2.36-11.83,1-13.83,9.31-33.94,25.53-34.56,2.78-.11,5.56.42,8.26,1.39,12.23-.47,24.31,6.39,28.19,19.23,5.22,17.3-9.26,33.17-25.22,37.12Z"/>
  <path class="cls-1" d="m1098.39,258.07c-11.05-4.4-23.25-5.91-34.94-8.68-6.46-4.09-15.77-7.16-14.88-16.11,1.03-10.49,12.14-7.09,18.8-9.46,6.19-2.2,13.12-2.15,19.26-5.02,22.26-10.38,33.89-31.85,27.5-50.83-8.81-26.17-40.42-43.88-71.27-39.93l-.09.05c-18.02,5.86-30.3,18.56-40.4,33.87l-.03.05c-26.44,48.03-19.77,81.82,22.89,113.11,15.32,11.24,33.28,16.98,51.38,22.09,3.03,1.26,5.97,2.87,9.12,3.72,16.3,4.39,25.8-4.96,29.74-18.35,3.78-12.86-6.92-20.47-17.08-24.52Zm-60.44-59.73c-3.88-.8-6.06-3.89-6.63-7.33-.51-2.05-.34-4.33.93-6.69,2.23-4.5,4.58-9.13,7.66-13.15.03-.18.06-.37.09-.55.52-3.12,3.12-5.41,6.1-6.41,1.99-1.88,4.18-3.52,6.6-4.82,10.84-5.8,26.68-.39,30.02,12.11,5.52,20.65-30.35,29.8-44.77,26.84Z"/>
  <path class="cls-1" d="m643.92,6.58c2.2,2.27,4.41,4.55,6.61,6.82,5.48,6.96,4.51,15.22,2.62,22.52-12.31,47.57-19.51,96.18-29.65,144.18-11.91,56.38-6.54,62.22,48.08,59.71,4.48-.21,8.98,0,13.48.22,4.43.94,8.18,3.2,11.94,5.62,11.24,7.2,18.61,17.15,14.39,30.45-4.39,13.86-17.72,10.39-28.45,10.77-26.7.94-53.19-.43-79.06-7.88-36.91-23.37-35.26-57.61-27.61-94.37,10.62-51.07,28.05-100.7,31.01-153.43,1.17-20.92,10.61-26.09,36.64-24.61Z"/>
  <path class="cls-1" d="m832.16,156.75c-12.03-8.99-26.46-5.47-37.6-11.8-27.52-15.65-46.56-6.31-62.42,17.25-7.36,13.84-11.1,28.94-14.47,44.03-9.67,43.18,15.23,72.02,59.68,70.55,34.74-1.15,57.71-20.29,75.96-47.42,3.45-27.22,4.98-53.09-21.15-72.62Zm-25.47,70.62c-2.58,3.22-5.91,5.76-9.65,7.58-.9.57-1.81,1.13-2.73,1.66-2.21,1.28-4.35,1.55-6.3,1.18-3.13.49-6.3.57-9.35.1-7.67-.22-15.37-3.64-20.38-9.36-14.53-16.62-7.07-47.81,15.83-51.88,1.31-.23,2.62-.35,3.92-.39.92-.28,1.9-.48,3.02-.47,15.64.12,30.25,4.76,34.95,21.36,3.47,12.23-1.32,22.39-9.31,30.24Z"/>
  <path class="cls-1" d="m237.74,141.28c2.37-2.24,4.74-4.47,7.1-6.71,6.83-3.74,13.52-4.97,19.83,1.05,2.4,2.16,4.8,4.33,7.2,6.49,4.63,3,9.74,5.49,13.33,9.73,13.09,15.46,24.94,18.53,40.67,1.52,12.21-13.2,29-20.01,48.01-12.16,9.54,9.54,5.77,18.08-2.57,25.52-6.57,5.87-14.13,10.63-20.9,16.3-21.44,17.97-21.83,22.62-3.2,42.12,6.09,6.38,12.99,11.99,19.52,17.95,5.11,11.23,5.18,22.46-.04,33.68h0c-11.8,7.41-20.95,2.16-29.49-6.13-4.78-4.64-9.45-9.4-14.22-14.05q-23.71-23.16-46.88-.73c-2.39,2.32-4.47,5.05-7.14,6.99-8.21,5.97-13.57,20.67-27.14,11.96-12.33-7.92-11.44-20.44-6.92-32.83.75-2.07,2.06-3.89,3.48-5.63,5.67-6.72,11.39-13.39,16.99-20.16,15.04-18.18,14.88-19.74-3.56-40.66-12.38-8.25-21.87-17.69-14.06-34.24Z"/>
  <path class="cls-1" d="m901.14,263.02c-11.25-12.09-14.97-26.55-14.49-42.79.53-17.9-1.02-35.25-13.57-50.04-8.05-9.48-8.88-20.69.72-29.82,9.8-9.31,20.37-6.86,29.67,1.52,7.21,6.49,15.24,8.57,24.55,6.63,10.84-8.96,23.41-11.7,37.06-9.95,16.07,2.07,17.38,10.63,9.62,22.86-2.31,2.17-4.62,4.34-6.94,6.52-25.59,15.62-32.21,39.97-34.26,68.1-1.27,17.39-4.85,38.2-32.36,26.97Z"/>
  <path class="cls-1" d="m94.71,128.15c29.82,1.39,59.56.22,88.73.07,11.21-.06,25.65-.47,24.64,15.27-.79,12.31-12.41,17.88-24.97,17.97-31.39.22-62.78-.09-94.16.55-31.49.65-36.23,11.13-36.41,54.46-.14,32.44,15.16,30.39,35.38,29.51,26.89-1.16,55.66-4.8,82.8-3.52,10.19.48,22.32-.38,23.66,13,1.29,12.86-8.06,19.08-17.37,21.86-40.48,12.12-85.17,8.62-126.62,5.91-25.17-1.65-37.13-20.17-37.99-43.96-2.57-71.85,20.75-139.24,39.37-207.08C56.47,15.05,72.4.98,95.09.12c35.01-1.33,69.13,8.63,104.15,6.59,8.09-.47,16.2,3.92,15.57,13.87-.62,9.65-7.56,22.37-15.82,22.81-24.61,1.31-39.41-2.32-64.52-5.8-47.91,1.16-50.39,12.6-56.32,45.9-4.14,23.27-12.03,39.23,16.57,44.64Z"/>
</svg>