<?xml version="1.0" encoding="UTF-8"?>
<svg id="_图层_1" data-name="图层 1" xmlns="http://www.w3.org/2000/svg" viewBox="0 0 878.32 308.11">
  <defs>
    <style>
      .cls-1 {
        fill: #9f947f;
      }
    </style>
  </defs>
  <path class="cls-1" d="m196.23,294.19c-2.27,2.44-4.55,4.88-6.82,7.31-29.15,1.87-33.9-2.21-33.01-27.85.82-23.65,7.14-46.54,9.59-69.95,2.85-27.31,0-29.68-28.17-27.94-16.48,1.02-32.73,3.75-49.17,5.07-22.44,1.8-29.23,7.85-30.6,30.37-1.57,25.84-6.28,51.01-11.23,76.24h0c-9.25,14.94-20.57,23.98-38.74,13.65-12.21-13.01-7-28.95-6.73-43.72.84-45.96,12.29-90.29,22.94-134.6,4.38-18.22,5.22-37.24,12.47-54.77,8.36-14.85,5.91-32.13,10.71-47.81C50.78,9.32,56.44-.65,68.57.03c13.61.76,19.5,11.4,20.75,24.38,2.42,25.11-3.56,49.24-10.44,72.84-7.58,25.99,2.12,34.63,27.31,33.63,23.31-.93,46.68-.17,69.3-7.26,10.55-19.02,7.69-41.04,13.63-61.18,3.98-13.47,5.14-27.78,14.59-39.15,34.18-7.34,36.35-2.62,34.04,31.26-4.35,63.83-21.84,125.56-26.89,189.16-1.4,17.59-3.9,35.35-14.63,50.47Z"/>
  <path class="cls-1" d="m666.97,159.82c4.72,4.83,9.44,9.67,14.16,14.5,17.76,23.73,14.23,50.83,10.82,77.24-1.74,13.44-11.3,25.21-25.92,23.65-15.13-1.61-18.59-15.14-19.76-29.14-1.43-17.1,5.27-35.5-7.34-51l.02-.03c-16.93-9.66-26.03-.72-33.67,13.52-5.74,10.69-6.34,22.81-10.85,33.76-9.08,22.04-13.09,23.67-40.84,16.65l-.17.12c-6.47-15.77-3.21-32.09-2.17-48.15.48-7.46.9-14.18-6.64-17.96-7.47-3.74-13.69,0-18.81,5.05-8.15,8.04-18.64,14.6-18.81,28.14-.15,11.97-7.13,21.83-10.67,32.76h0c-6.91,9.43-13.06,21.98-27.71,15.24-12.57-5.78-18.83-16.43-18.65-31.39.3-24.83-.39-49.63,7.51-73.61,9.9-14.13,19.96-27.29,39.82-14.15,7.18,4.75,13.31-.61,19.48-3.8,19.32-10,39.65-8.15,57.89.27,14.25,6.57,25.67,7.31,39.85,1.14,18.22-7.93,36.62-7.11,52.47,7.19Z"/>
  <path class="cls-1" d="m877.81,184.98c-4.86-29.9-18.92-53.34-48.97-63.64-27.73-9.51-49.88-1.17-69.47,20.72-31.54,35.25-40.74,73.24-20.4,116.98l.02.03c7.41,11.59,17,21.02,28.47,28.57l.03.02c22.14,15.25,46.56,23.37,73.39,19.52,13.5-1.94,25.69-9.33,23.62-25.71-1.76-13.91-12.5-18.65-25.88-18.8-10.52-.12-21.38,1.92-31.36-3.47-7.1-3.83-16.95-6.08-14.76-16.93,1.8-8.9,10.34-7.73,17.3-8.51,21.61-2.43,41.76-8.3,56.78-25.49,2.29-2.38,4.58-4.77,6.86-7.15,5.56-4.24,5.28-10.53,4.37-16.11Zm-44.76-.27c-2.15,3.76-6.12,6.94-10.84,8.64-3.67,1.32-7.53,2.13-11.4,2.69-5.33,2.2-10.72,3.27-16.52,2.9-1.12.21-2.26.37-3.43.42-.87.03-1.71,0-2.52-.08-1.81.35-3.7.3-5.45-.14-6.05.04-12.34-4.87-10.29-12.45.64-2.38,1.79-4.47,3.25-6.33.06-.24.13-.48.19-.71.22-1.08.49-2.17.89-3.35.19-.56.44-1.05.69-1.53,2.31-8.28,12.01-12.77,20.09-14.85,9.25-2.38,21.32-4.08,29.61,1.8.84.33,1.7.64,2.48,1.1,8.25,4.78,8.59,15.31,3.24,21.91Z"/>
  <path class="cls-1" d="m395.6,160.99c-5.58-4.05-34.86-13.89-45.06-15.86-35.23-6.78-58.56,13.27-73.23,38.73-20.84,36.18-16.84,92.15,38.65,102.96,12.51,2.44,26.64,3.1,38.73-.19,26.97-7.34,52.07-22.76,60.94-49.17,9.03-26.88,7.68-56.36-20.03-76.48Zm-29.01,70.58c-1.37,1.42-3.06,2.65-4.86,3.76-.21.22-.4.47-.62.68-3.36,3.25-7.28,5.8-11.83,7.06-2.17.6-4.47,1-6.72.89-4.25-.21-8.41-1.13-12.12-3.3-1.57-.92-3.74-2.71-5.07-3.96,2.42,2.29-2.91-3.28-3.79-4.95-.35-.67-2.2-4.94-2.42-5.71-.61-2.22-.94-4.55-1.02-6.87-.37-1.88-.67-4.09-.65-5.81.1-6.37,2.61-11.93,6.85-16.55,2.16-2.35,4.85-4.01,7.78-5.11.15-.1.25-.19.4-.29,12.74-8.27,30.97-3.24,38.43,9.76,5.82,10.15,3.53,22.21-4.37,30.41Z"/>
</svg>