<?xml version="1.0" encoding="UTF-8"?>
<svg id="_图层_1" data-name="图层 1" xmlns="http://www.w3.org/2000/svg" viewBox="0 0 772.1 463.36">
  <defs>
    <style>
      .cls-1 {
        fill: #9e947f;
      }
    </style>
  </defs>
  <path class="cls-1" d="m2.03,282.49c8.92-14.71,22.73-15.42,37.87-13.98,19.29,1.84,38.44,1.12,56.35-7.78,11.72-8.17,25.56-12.96,35.48-24.09,15.42-17.3,14.98-27.2-3.78-40.92-10.84-7.93-23.79-10.74-36.57-14-20.81-5.31-42.39-8.65-60.41-21.76C-3.6,126.97-6.87,105.37,15.84,64.92c7.75-13.81,16.52-26.48,29.79-35.52C77.85,9.44,112.03-2.09,150.83.31c21.57,1.33,35.7,12.3,47.65,27.96,8.33,10.92,7.57,22.4-1.55,32.72-10.82,12.24-21.04,7.47-30.75-1.83-21.23-20.35-44.91-18.63-69.63-7.79l-.1.07c-7.22,4.8-15,8.73-21.87,14.09-8.33,6.18-15.96,13.04-21.24,22.15-7.52,8.98-5.09,18.11,1.31,25.74,7.5,8.94,14.6,19.65,27.81,20.71,15.78,1.27,29.67,7.83,44.15,13.29,59.16,22.3,73.55,54.79,49.49,113.61-5.61,8.87-13.06,15.94-21.64,21.89-34.66,28.43-75.53,38.55-119.15,39.13-26,.35-41.01-10.56-33.28-39.56Z"/>
  <path class="cls-1" d="m703.92,210.24c8.95-18.22,17.59-36.58,29.98-52.87,7.42-9.75,16.13-14.31,27.67-7.44,11.17,6.65,12.76,16.6,7.98,27.86-4.67,10.98-9.82,21.76-14.76,32.63-23.06,59.72-49.7,118.13-65.59,180.45h-.01c-13.45,17.19-.34,40.91-14.29,57.98-4.8,4.84-9.6,9.68-14.4,14.52-24.97-3.38-30.07-7.54-27.58-28.35,2.41-20.1,7.2-40.03,15.65-58.66,11.86-26.16,14.2-55.47,28.23-81.12,6.25-11.44,1.29-23.38-10.77-30.66-13.11-5.37-20.52-15.52-25.73-28.41-7.75-19.15-9.18-39.68-13.77-59.47-3.17-13.69,8.28-27.73,20.51-28.85,14.53-1.33,22.49,8.05,26.25,20.03,3.93,12.53.64,26.3,4.66,39.19,6.47,20.78,15.39,17.88,25.98,3.19Z"/>
  <path class="cls-1" d="m530.33,152.44c8.2,16.51,19.1,19.26,33.77,7.34,14.99-12.18,30.23-10.76,45.09.7,10.47,23.36-15.99,26.19-22.35,40.2-16.16,13.55-25.83,28.96-25.08,51.95.56,17.02-8.41,35.6-28.61,34.19-20.29-1.42-28.14-17.73-28.38-38.51-.23-19.82,4.78-40.16-3.54-59.55l-.05-.05c-4.83-10.21-15.91-19.39-5.55-32.16,10.19-12.55,22.01-12.28,34.71-4.11Z"/>
  <path class="cls-1" d="m471.3,190.97c-5.05-22.25-25.09-34.12-47.61-37.99-15.31-2.63-31.02-3.2-44.65,7.03-12.66,18.35-29.27,33.16-30.32,59.3-.97,24.07-.04,33.8,24.2,54.28,27.82,13.64,48.55,9.18,63.53,2.23,7.22-6.19,14.34-12.5,21.67-18.55,22.37-18.46,18.24-43.99,13.18-66.31Zm-29.15,32.13c-3.17,7.51-9.59,13.37-17.11,16.63-.17.14-.32.31-.5.44-8.53,6.58-21.21,4.14-29.59-1.39-9.98-6.57-14.61-16.55-12.74-28.36,1.36-8.58,6.04-17.09,13.8-21.46,7.31-4.11,16.63-3.39,24.5-1.63,16.65,3.72,28.84,18.71,21.64,35.76Z"/>
  <path class="cls-1" d="m335.27,159.46c21.8,8.85,5.55,29.5-8.33,27.47-33.39,7.6-42.53,19-40.29,46.04.49,5.98-1.53,22.11-1.68,28.13-.28,10.87.37,22.86-13.64,25.89-10.45,2.26-21.96-11.95-21.98-27.63-.01-8.24,2.64-16.48,4.01-24.74,4.38-26.33,2.62-30.22-22.69-38.62-10.16-3.37-18.44-7.41-17.96-18.94.49-11.77,9.45-16.92,19.86-16.67,21.17.5,30.52-9.45,32.04-30.01.55-7.4,7.09-12.57,15.28-12.81,7.21-.21,10.88,4.53,11.49,11.16,2.56,27.61,21.24,31.88,43.85,30.7,0,0-21.77-8.83.03.02Z"/>
</svg>