<?xml version="1.0" encoding="UTF-8"?>
<svg id="_图层_1" data-name="图层 1" xmlns="http://www.w3.org/2000/svg" viewBox="0 0 947.64 301.9">
  <defs>
    <style>
      .cls-1 {
        fill: #9f9581;
      }

      .cls-2 {
        fill: #9f9580;
      }

      .cls-3 {
        fill: #9f9480;
      }

      .cls-4 {
        fill: #9d937d;
      }
    </style>
  </defs>
  <path class="cls-2" d="m616.16,253.69c-5.33,5.34-10.66,10.68-16,16.03-38.67,21.73-63.77,12.89-74.86-27.26-5.27-19.07-9.19-38.6-11.23-58.31-1.08-10.38-1.77-20.93,2.08-31.35,5.18-14.03,13.64-22.99,29.42-20.47,14.01,2.24,19.43,12.13,19.5,25.67.07,11.91-.24,23.82.18,35.71.31,8.83-.03,27.31,11.25,31.18,13.17,4.52,21.42-1.61,25.69-11.49,1.53-3.55,4.53-22.67,4.53-22.67,4.14-17.18,1.06-27.83,9.37-39.8,6.63-9.55,13.88-20.95,27.87-17.97,12.92,2.75,19.56,13.01,20.1,25.98.5,11.88-3.68,23.67-2.93,35.42.73,11.46,15.63,32.74,26.9,37.18,33.77-7.04,38.53-42.8,36.78-73.97-1.01-17.86-4.45-41.26,23.13-40.96,27.19.3,32.95,20.8,32.15,44.52-1.56,46.66-21.62,82.87-59.73,109.4l-.05.04c-25.92,11.1-50.82,11.29-74-6.79-8.81-6.95-14.95-22.03-30.16-10.08Z"/>
  <path class="cls-3" d="m290.88,8.21c3.99-7.63,20.87-12.84,32.11-2.14,9.15,8.71,5.36,18.64,2.81,29.14-17.84,73.55-38.75,146.23-60.63,218.64-4.81,20.08-10.51,24.31-15.35,28.8-27.83,25.87-52.14,11.54-63.35-25.79-11.34-37.77-17.75-75.16-26.39-113.71-3.16-14.11-1.41-35.64-3.56-49.97-1.15-7.65-3.7-15.43-9.15-14.34-8.32-.11-12.9,3.52-15.26,10.9-5.61,17.53-12.49,32.23-15.99,49.77-8.95,44.98-31.2,85.93-26.88,133.7,1.16,12.88-10.23,28.78-25.09,28.69-17.46-.1-21.11-14.11-19.72-28.28,4.51-45.94,12.27-91.43,27.06-135.22,10.51-31.12,24.12-61.17,35.24-92.1,4.28-11.91,11.02-20.86,21.1-27.72,28.96-19.69,50.58-11.67,57.97,22.71,9.13,42.45,16.89,85.2,25.17,127.83,1.25,6.45,1.14,13.34,3.4,19.38,3.13,8.36,2.17,17.01,12.93,17.49,12.26.56,15.45-7.86,17.08-18.53,9.33-61.09,24.7-117.35,46.5-179.26Z"/>
  <path class="cls-1" d="m435.46,254.99c-18.32-2.67-43.8-2.38-44.45-23.34-.76-24.42,25.71-14.71,40.98-16.96,39.19-5.78,57.07-28.71,49.62-65.44-5.77-28.47-39.68-47.06-70.56-42.27-38.25,5.93-77.96,64.48-72.9,105.52,5.27,42.78,44.78,74.58,100.4,74.77,11.08-3.51,37.5,7.47,38.05-15.97.58-24.89-25.95-14.1-41.13-16.32Zm-39.55-102.55c1.19-1.33,2.54-2.5,3.98-3.51.03-.06.04-.12.07-.17,4.97-9.37,17.11-14.64,27.42-14.07,14.01.77,25.14,12.38,21.68,26.85-4.72,19.77-39.49,28.98-53.15,13.7-6.08-6.8-6.05-16.03,0-22.8Z"/>
  <path class="cls-4" d="m864,111.84c15.55-2.76,31.03-6.11,46.68-8.04,9.05-1.11,18.64-1.81,27.3,2.8,6.2,3.3,10.8,8.29,9.42,15.73-.98,5.26-4.6,10.24-10.08,11.2-12.95,2.28-26.51,2.04-39.04,5.58-21.03,5.94-24.36,20.73-7.86,34.56,8.97,7.52,20.4,12.08,30.58,18.2,16.06,9.65,24.24,23.1,23.2,42.71-1.08,20.34-13.06,31.5-29.8,38.2-29.02,11.62-59.11,11.72-89.25,4.51-10-2.4-17.24-9.1-15.87-19.68,1.6-12.36,12.67-11.4,21.84-11.59,14.57-.3,29.18.17,43.73-.5,10.02-.47,18.26-5.01,19.63-16.02,1.33-10.7-4.52-18.53-14.44-20.76-13.83-3.12-23.66-11.21-32.83-21.01-19.97-21.35-20.23-32.36-1.17-54.71,5.96-7,11.85-14.06,17.77-21.08,0,0,.19-.09.19-.09Z"/>
</svg>