<?xml version="1.0" encoding="UTF-8"?>
<svg id="_图层_1" data-name="图层 1" xmlns="http://www.w3.org/2000/svg" viewBox="0 0 1264.69 313.56">
  <defs>
    <style>
      .cls-1 {
        fill: #9d9380;
      }
    </style>
  </defs>
  <path class="cls-1" d="m114.18,59.15c-12.4,8.41-23.11,18.53-31.6,30.93-22.76,38.67-43.83,77.69-26.27,124.85,3.21,7.24,8.34,12.6,15.51,16,32.75,17.31,66.77,14.26,101.43,7.28,15.53-3.13,36.25-12.08,43.32,9.93,7.93,24.72-12.04,32.27-31.66,38.66-38.21,12.44-75.78,8.24-113.45-1.74l-.13-.07c-10.05-5.85-22.23-7.56-30.97-15.96C-.82,231.7-9.03,192.75,9.11,137.87,26.2,86.16,52.45,42.01,99.4,12.22c28.95-16.4,59.51-14.2,89.63-5.62,13.57,3.87,27.17,12.62,22.3,30.75-5,18.61-18.63,12.12-31.3,9.22-23.58-5.39-46.13-3.3-65.84,12.58Z"/>
  <path class="cls-1" d="m937.33,222.22c-14.95-14.04-29.76-27.55-29.56-51.62.13-16.05-11.92-25.25-28.74-24.62-12.41.47-21.22-8.46-32.15-11.23-19.42-4.94-34.03-8.27-54.59-.33-8.12,3.14-15.83,8.47-23.37,13.44-5.44,5.04-10.87,10.08-16.31,15.11-20.65,38.16-21.93,76.39-3.14,93.6,28.44,26.05,66.08,28.88,103.15,2.85,22.2-15.59,39.65-21.15,61.11-.52,8.74,8.41,21.87,5.56,33.37,2.74,12.65-17.11,2.3-28.09-9.77-39.42Zm-87.96-11.59c-1.14,3.41-2.87,6.3-5.02,8.73-5.05,9.57-12.9,16.79-24.39,18.53-12.04,1.83-27.27-1.61-35.65-11.04-16.91-19.02-2.54-51.81,21.01-56.59,12.32-2.5,26.01-.07,35.13,9,8.04,7.99,12.64,20.24,8.93,31.36Z"/>
  <path class="cls-1" d="m386.25,164.72l-.04.03c-29.83-43.59-71.07-46.45-116.95-32.75-14.38,8.26-29.6,18.66-32.68,38.05-21.96,46.37-14.97,86.55,23.47,103.02,31.16,13.35,65.64,16.94,93.7-11.78,10.28-11.48,21.98-21.32,30.18-35.09,12.37-20.77,16.35-40.41,2.33-61.49Zm-46.73,45.19c-2.78,6.16-7.21,11.74-11.78,15.36-21.82,17.32-54.82,3.28-55.48-25.21-.58-24.78,24.96-46.72,49.16-38.45,20.73,7.08,33.24,31.34,18.1,48.3Z"/>
  <path class="cls-1" d="m1172.59,310.45c-2.58-2.63-5.16-5.26-7.73-7.9-7.25-12.48-13.5-26.04-10.24-40.28,7.21-31.48,7.67-56.44-35.44-56.9-9.19-.1-13.76-10.6-13.75-20.64,0-11.53,6.01-19.46,15.64-24.73,5.84-3.2,12.58-2.61,18.94-2.09,20.62,1.71,31.68-6.64,32.22-28.2.16-6.48.61-17.52,5.26-22.11,9.35-8.22,33.58-8.06,32.62,3.22-1.79,21,1.69,38.46,16.19,45.61,15.33,7.55,41.68,4.7,38.04,25.98-1.31,7.66-8.62,12.61-15.61,16.43-40.06,21.88-45.29,32.56-37.82,77.37,5.97,35.84-1.32,42.35-38.32,34.23Z"/>
  <path class="cls-1" d="m423.08,259.97c-2.68-2.72-5.36-5.44-8.05-8.16-9.95-34.66-12.32-69.56-5.35-105.22,2.7-13.85,5.9-24.97,23.06-23.59,20.53,13.73,42.04,18.29,67.73,17.77,51.16-1.05,88.88,67.26,64.7,112.52-6.11,11.43-15.6,16.99-28.96,12.21-13.1-7.2-15.6-19.1-14.76-32.73.56-9.03-3.3-17.54-3.63-26.57-.48-13.24-6.94-21.96-20.76-23.06-14.61-1.17-25.19,5.62-29.15,19.59-5.55,19.57-6.71,40.66-21.45,56.72l.05-.05c-7.67,6.05-15.51,4.89-23.44.58Z"/>
  <path class="cls-1" d="m720.6,147.81c2.7,19.14-5.03,29.73-24.94,29.45-24.46-.35-30.14,14.49-29.52,35.11.46,15.28-1.21,30.57,3.98,45.6,5.27,15.25,4.77,30.27-6.7,43.24-30.35-6.91-35.46-30.15-36.01-56.06-.61-28.37,10.25-63.04-38.05-63.34-6.61-.04-8.47-8.9-8.08-15.65.48-8.33,4.61-17.7,12.12-17.85,28.51-.55,44.52-13.91,51.82-41.11,2.23-8.3,17.49-10.01,17.92-3.8,2.61,37.86,35.47,33.63,57.47,44.41Z"/>
  <path class="cls-1" d="m1088.32,146.39c-6.97,15.09-21.32,17.09-35.25,20.63-26.74,6.8-38.95,21.53-36.02,42,2.64,18.42,15.18,27.03,43.41,29.65,5.16.48,10.44.12,15.51,1.03,20.68,3.72,21.77,14.95,11.21,30.35-35.59,17.5-66.11.23-94.84-16.65-23.62-13.88-28.18-42.9-14.15-68.81,11.32-20.91,28.65-36.68,49.23-48.45,22.84-13.06,42.4-3.91,60.9,10.26Z"/>
</svg>